<?xml version="1.0" standalone="no"?>
<!DOCTYPE svg PUBLIC "-//W3C//DTD SVG 20010904//EN"
 "http://www.w3.org/TR/2001/REC-SVG-20010904/DTD/svg10.dtd">
<svg version="1.0" xmlns="http://www.w3.org/2000/svg"
 width="256.000000pt" height="256.000000pt" viewBox="0 0 256.000000 256.000000"
 preserveAspectRatio="xMidYMid meet">
<metadata>
Created by potrace 1.11, written by Peter Selinger 2001-2013
</metadata>
<g transform="translate(0.000000,256.000000) scale(0.100000,-0.100000)"
fill="#000000" stroke="none">
<path d="M1149 2546 c-2 -2 -27 -6 -56 -10 -28 -3 -57 -8 -65 -11 -7 -2 -24
-6 -38 -9 -14 -2 -52 -12 -85 -22 -33 -10 -62 -19 -65 -19 -31 -9 -181 -82
-239 -117 -115 -69 -258 -201 -343 -315 -23 -32 -46 -60 -50 -63 -14 -11 -117
-221 -133 -272 -9 -29 -19 -60 -22 -68 -10 -26 -12 -32 -32 -140 -26 -139 -23
-343 7 -481 31 -144 126 -375 168 -410 8 -6 14 -17 14 -24 0 -7 14 -27 30 -45
17 -18 30 -36 30 -40 0 -17 178 -189 251 -243 124 -91 282 -165 439 -206 115
-30 154 -34 305 -35 176 -1 244 7 370 46 39 12 75 22 82 24 29 6 207 96 264
134 286 192 465 454 548 802 24 101 28 373 6 481 -8 44 -17 82 -19 86 -3 4 -7
18 -10 32 -18 95 -103 275 -187 392 -113 159 -267 294 -443 387 -82 44 -241
105 -306 117 -130 24 -188 30 -294 31 -68 1 -125 0 -127 -2z"/>
</g>
</svg>
